<?xml version="1.0" standalone="no"?><!DOCTYPE svg PUBLIC "-//W3C//DTD SVG 1.1//EN" "http://www.w3.org/Graphics/SVG/1.1/DTD/svg11.dtd"><svg t="1764215514081" class="icon" viewBox="0 0 1024 1024" version="1.1" xmlns="http://www.w3.org/2000/svg" p-id="17679" xmlns:xlink="http://www.w3.org/1999/xlink" width="64" height="64"><path d="M0 512c0 282.763636 229.236364 512 512 512s512-229.236364 512-512S794.763636 0 512 0 0 229.236364 0 512z" fill="#D44040" p-id="17680"></path><path d="M1013.76 408.576C965.632 175.104 759.808 0 512 0 229.376 0 0 229.376 0 512c0 123.904 44.032 236.544 116.736 324.608A601.413818 601.413818 0 0 0 409.6 911.36c301.056 0 550.912-217.088 604.16-502.784z" fill="#F44444" p-id="17681"></path><path d="M204.8 409.6a92.16 92.16 0 1 0 184.32 0 92.16 92.16 0 0 0-184.32 0zM634.88 409.6a92.16 92.16 0 1 0 184.32 0 92.16 92.16 0 0 0-184.32 0z" fill="#682102" p-id="17682"></path><path d="M348.16 378.88L175.104 315.392c-16.384-6.144-24.576-23.552-18.432-38.912 6.144-16.384 23.552-24.576 38.912-18.432L368.64 320.512c16.384 6.144 24.576 23.552 18.432 38.912-5.12 16.384-23.552 24.576-38.912 19.456z m500.736-63.488L675.84 378.88a29.277091 29.277091 0 0 1-38.912-18.432 29.277091 29.277091 0 0 1 18.432-38.912l173.056-63.488a29.277091 29.277091 0 0 1 38.912 18.432 29.602909 29.602909 0 0 1-18.432 38.912z" fill="#682102" p-id="17683"></path><path d="M653.312 644.096c-9.216 2.048-19.456-3.072-22.528-11.264a81.547636 81.547636 0 0 0-50.176-47.104 207.034182 207.034182 0 0 0-136.192 0c-22.528 8.192-40.96 25.6-50.176 47.104a19.409455 19.409455 0 0 1-22.528 11.264c-12.288-2.048-19.456-15.36-15.36-27.648a127.255273 127.255273 0 0 1 74.752-70.656 246.597818 246.597818 0 0 1 162.816 0c33.792 11.264 61.44 37.888 74.752 70.656 4.096 12.288-3.072 25.6-15.36 27.648z" fill="#682102" p-id="17684"></path></svg>