<?xml version="1.0" standalone="no"?><!DOCTYPE svg PUBLIC "-//W3C//DTD SVG 1.1//EN" "http://www.w3.org/Graphics/SVG/1.1/DTD/svg11.dtd"><svg t="1764223353711" class="icon" viewBox="0 0 1024 1024" version="1.1" xmlns="http://www.w3.org/2000/svg" p-id="8305" xmlns:xlink="http://www.w3.org/1999/xlink" width="64" height="64"><path d="M959.8 579.2c-1.7-13.7-13.2-16.9-25.7-14.3-21.3 4.4-43 6.7-64.5 9.9-19.2 2.9-39.6 2.1-57.7 9.4-34.3 13.9-70.4 10.3-105.5 11.4-27.2 0.9-53.1 4.4-78.8 11.9-8 2.7-17.8-1.8-24.3 6.3-3.2 1.3-6.4 2.7-9.6 4-4.3-4.1-3.7-15.2-14.5-10.1-3.6 0.1-6.8 0.5-5.5 5.4-1.1 4-5.2 3-7.8 4.6l0.1-0.2c0-4.8-0.1-9.5-0.1-14.3 51.9-27.1 104.9-51.9 159-73.9 35.9-14.7 68.1-35.5 102.3-52.7 5.8-2.9 10.9-7.1 5.7-14.4-4.4-6.1-9.1-2.8-14.5-0.4C780.3 479 747 505 707.8 520.2c-56.2 21.8-107.2 55.4-165 73.7 1.5-9.8-5.5-10.5-12.4-11.7-3.4-0.6-6.1 0.6-6.6 3.4-1.3 6.6 5.9 7.2 8.7 11-13.8 5.6-28.1 8.7-43.1 7.4-7.5-1.2-15.6-0.3-21.5-6.6-1 0.1-1.7-0.2-2.2-1 1.1-1 2.1-2 3.2-2.9 22.1-6.1 6.5-17.2 3.5-26.6 39-32.3 70.4-71.5 100.1-112.1 2.7-3.8 6.7-7.4 1.4-11.1-4.3-3-6.7 1.5-9 4.6-22.9 30.5-46.7 60.3-73.2 87.9-10.9 4.4-16.1-12.2-26.7-8.6-1.3 8.6 16.7 7.8 7.1 18.8 0 0.7 0.1 1.5 0.1 2.2-0.8 0.3-1.5 0.5-2.2 0.9-4.9 3.4-7.7 7.9-7.7 13.9-3.4 1.5-4.3 4.9-5.3 8.3-1.1-1.7-1.4-3.6-1.5-5.5 0.7-2.3 1.3-4.6 1.1-6.8l0.3-0.3c2.7-7.4 6.1-14.7 0.7-22.3-9-6.6-11.4-29.7-2.1-42.8 14.5-20.5 16.5-46.1 29.2-67.1 2.5-4.2 3-8.6-2.7-11-4.8-2-9-1.1-11.4 3.7-3 6-5.3 12.3-8.4 18.3-7.7 15.3-5.8 34.1-17.6 47.9-4.1-0.1-7.7-1-9.8-5-15.5-3.4-10 5.6-7.5 12.8 0.5-0.4 1.1-0.9 1.6-1.3 0.1 0.1 0.1 0.3 0.1 0.4-0.6 0.3-1.2 0.6-1.7 0.9-0.1 6-0.1 12-0.2 18-3.8 5.3-9.8 3.5-14.9 4.5 0.8 0.9 1 1.7 0.7 2.4-0.1-0.8-0.3-1.6-0.7-2.4-2.6-4.2-5.2-8.4-7.8-12.5 0.4-7-3.1-10.4-10-10.6-13.5-13.2-18.8-30.5-22.9-48-2-8.7-5.3-13.7-14.3-12.1-9.3 1.7-7 9.1-5.1 14.7 2.5 7.4 6.7 14.1 9.4 21.4 5.4 14.7 18.2 25.6 21.1 41.5 1.2 6.8 1.7 14.8-6.8 16.5-12.3 2.5-29.9-13.8-30.6-27.3-0.9-19.8-8.3-36.2-23.4-49-15.8 12.4-2.5 21.6 2.3 31.6-0.3 4.8-3.2 7.1-7.7 7.7-17.8-7-22.9-26.3-36.5-37.7-8.1-6.8-13.3-8-21.2-1.2-9.9 8.5-36.8 12.3-50.3 12.1-15.2-0.2-21.1-10.3-25.6-20.5-5.6-12.5-13.1-23.5-21.2-34.1-15.2-19.5-33.9-35.6-54.9-48.5-13.4-8.3-36.9-4.3-41.4 5.4-4.9 10.5 3.1 31.7 14.7 37.6 45.4 23.1 83.1 54.6 113.5 95.9 10.9 14.7 11.9 28.6 9.9 44.7-3.8 4.1-12.4-4.1-13.7 4.4-1.2 7.8 8.4 2.1 10.9 6.7 0.7 1.3 3.8 1.2 5.8 1.8 9.1 1.1 16.3 4.4 22.5 12.3 10.4 13.3 21.4 26.6 34.4 37.2 18.1 14.7 29.6 35.9 49.1 49 1.3 0.9 1 4.1 1.4 6.2-3.5 2.3-8.6-3.3-11.1 1.7-1.2 2.5 1.4 4.6 4.6 4.3 3.4 1 6.7 2 10.1 3 6.5 7.8 15.5 7.5 24.3 7.4 5.8 0 16.2-5.3 8.4 8.8-1.2 2.1-0.1 14.4 10.8 11.8 5.5-1.6 12.2 2.7 16.8-3.3 1-1.3 2-2.5 3-3.8 5 14.4 16 10.9 26 10.1 1.5 0.1 3 0.1 4.6-0.1 15.6 12 27 12.5 35.8-0.3 7.6-11 19.7-20.8 12.6-38.4 14.1 13.7 33.7 11.6 46 22.8 8 7.3 11.4 1.9 13.5-3.1 8.5-19.7 23.3-25.1 43.1-20.9-1 2.3-3.4 4.4-1.7 7.3 0.4 0.7 2 1.3 2.6 1 3.8-1.8 2.2-5.4 2.6-8.3 13.2-7.7 27.2-10.8 42.8-11.1 16.2-0.3 34.7 4.5 47.2-12.4 2.7-3.7 8.2-2.7 12.7-2.9 11.8-0.5 23.4-1.7 35-3.9 27.9-5.4 55.9-11.4 84.1-14.2 50.4-4.9 100.9-8.6 150.6-19 12.1-2.4 23.3-5 21.6-18.6z m-535.1-50.1c-0.1 0.3-0.1 0.5-0.2 0.8 4.9 5.1 8.1-0.7 11.9-2.9-1.1 7.6 2.6 14.3 4.5 21.4 0.1 0.4 0.2 0.8 0.3 1.1-4 1.8-9.1 1.2-12.7 3.8h-3.6c-0.1-0.2-0.1-0.5-0.2-0.7-2.3-7.9-6.6-14.9-10.2-22.3 3.4-1.5 6.9-6.9 10.2-1.2z" fill="#FF0000" p-id="8306"></path><path d="M279.7 644.7c-10.4-2.2-18.7-10.1-29.7-10.4-0.4 0.3-0.8 0.5-1.3 0.6 0.4-0.2 0.9-0.4 1.3-0.6-2.3-1.2-4.5-2.4-6.8-3.6-7.3-4.4-15.2-5.1-25.1-5.4 4 7.6 9.6 8.2 14.9 9.2 2.6 3.3 6.2 3.3 9.9 3.1 10.5 6.3 20.9 12.8 31.7 18.6 5 2.7 10.8 0.1 12.9-4.3 3.2-7.1-4.3-6.4-7.8-7.2zM493.8 711.8c-5.1 4.3-27.8 2-7.1 16.1 11.1 7.6 15.2-5.7 22.9-11.8-6.4-3.6-12.4 1.4-15.8-4.3zM188.8 329.3c-0.2-11.2-6.2-18.2-12.5-25.1-2.7-5.6-3.8-13.9-14.6-8.8 3.8 5 7 9.3 10.2 13.6 3 8.3 5.6 16.9 16.9 20.3zM293.6 422.2c2.1 4.7 4.3 9.4 6.4 14.1 0.3 6.6 1 13 7.7 16.7 6-4.3 1.1-9.6 2.7-13.8-6.9 0.1-5.7-6-7.3-10-1.8-5-3.5-10-5.3-15-1.1-5.3-0.9-11.4-7.6-13.2-1-0.3-3.4 1-3.8 2.1-1.9 5.2 0.8 9.6 3.3 13.9 1.1 1.7 2.6 3.4 3.9 5.2zM406.6 490.7c0.6 0.8 5.5-0.5 7.1-2.1 4.5-4.6 5.4-9.5-1.5-13.1 0.1-2.8 0.2-5.6 0.1-8.4-0.1-2.8-0.4-6.3-3.9-6.2-5 0.1-4 4.6-3.6 7.5 0.4 2.6 2.2 4.9 3.3 7.4-3.5 4.7-5.6 9.8-1.5 14.9zM542.7 536.4c-4.1 8.3-10.8 16.2-4.5 26.5 6.5-3.7 7.4-9.8 8.4-15.7 1.2-3.5 2.7-6.9 3.3-10.5 0.4-2.6 2.6-7.2-2.5-7.4-3.4-0.1-4.6 3.6-4.7 7.1zM415.4 504.3c-0.1 2.1 0.8 4.5 3.4 4.7 3.3 0.2 4.1-2.8 5.6-4.9-0.4-2.2-1.1-4.2-3.8-4.5-3.3-0.3-5 1.8-5.2 4.7zM848.6 502.4c1.9-0.3 4.5-1.3 5.1-2.7 1.2-2.9-1.7-3.2-3.8-3.7-2.2 0.8-6-0.2-6 3.6-0.2 2.9 2.7 3.2 4.7 2.8zM310.9 438.8h-0.4c-0.1 0.1-0.1 0.2-0.1 0.4h0.5v-0.4zM317.4 430.2c-0.7-2.4-3.2-4.3-4.6-3.2-3.9 3-1.8 7.7-1.9 11.7 6.5 0.7 8.2-2.5 6.5-8.5zM249.6 319.4c3 0.7 3.4-2 3.4-4 0.1-1.8-0.7-3.6-1.1-5.2-3.6 0.2-4.5 2.1-4.8 4.2-0.3 2.2 0.2 4.5 2.5 5zM506.3 579.3c-3.4 0.8-3.9 3.2-3.6 6.2 0.3 2.2 0.5 4.6 3.6 4.1 3.6-0.6 2.9-4 3.6-6.5-0.8-1.7 0-4.6-3.6-3.8zM496.1 500.9c2.3-0.4 3.3-2.3 2.7-4.7-0.4-1.5-0.8-3-0.9-3.3-4.7 1.9-6.1 3.5-5.1 5.8 0.4 1 2.3 2.4 3.3 2.2zM385.6 440.3c0.8-1.2 1.6-2.4 2.7-4.1-1.4-1.7-2.5-4.2-4.1-4.6-3.2-0.7-3.3 2.4-2.6 4.2 0.7 1.7 2.6 3 4 4.5zM307.7 685.6c-1.7-0.5-3.7 1.1-2.7 2.8 0.9 1.6 3.1 2.9 5 3.6 2 0.8 3-0.4 2.4-3.5-1.1-0.8-2.8-2.4-4.7-2.9zM209.5 615.2c-2.5 0.2-3.2 2.5-3.3 4.6-0.1 1.4 0.9 3.9 1.8 4 2.2 0.4 4.2-0.7 4.5-3.5 0.1-2.2 0.2-4.3-3-5.1zM237.2 612.1c-0.8-1.9-0.8-4.9-4-4.1-1.3 0.4-2.8 1.9-3.1 3.2-0.6 2.4 0.8 4.3 3.3 4.9 3.4 0.9 2.9-2.2 3.8-4zM630.7 587.9c2 4.8 5.2 6.9 10.1 4.3 0.6-0.3 0.7-3.2 0.1-4.1-3.1-3.7-6.6-3.1-10.2-0.2zM561 574.6c-1.8 0.5-3.6 2.4-4.5 4.2-0.7 1.3 0.2 3.2 3.6 2.9 0.9-0.7 3.4-1.6 4.2-3.3 1.2-2.4-0.9-4.4-3.3-3.8zM569.1 558.3c-3.9 0.7-2.8 5-1.6 10.3 1.9-2.5 3.1-3.6 3.7-5 1-2.3 2.3-6.1-2.1-5.3zM547.2 705.9c0.4 1.3 2 2.1 3.2 3.2 0.7-1.2 2-2.4 1.9-3.5-0.1-1.2-1.6-2.3-3.1-4.2-1.1 2.1-2.3 3.6-2 4.5zM478 702.6c-1.4 0.4-3.1 1.4-3.6 2.6-1 2.2 1.1 2.7 2.6 2.4 1.4-0.2 2.7-1.2 3.7-1.8 0.2-2.4-0.8-3.7-2.7-3.2zM657.8 580.8c-3.1 0.8-4.6 2.3-4.4 4.7 0.2 2.6 1.8 3.9 4.3 2.7 1.9-0.9 4-2.3 2.8-5-0.5-1-2-1.8-2.7-2.4z" fill="#FF0000" p-id="8307"></path></svg>