<?xml version="1.0" standalone="no"?><!DOCTYPE svg PUBLIC "-//W3C//DTD SVG 1.1//EN" "http://www.w3.org/Graphics/SVG/1.1/DTD/svg11.dtd"><svg t="1764215625437" class="icon" viewBox="0 0 1024 1024" version="1.1" xmlns="http://www.w3.org/2000/svg" p-id="23724" xmlns:xlink="http://www.w3.org/1999/xlink" width="64" height="64"><path d="M512 0c282.7776 0 512 229.2224 512 512A512 512 0 1 1 512 0zM489.472 631.6544c-25.2416 0-45.3632 6.144-60.416 18.5856a60.0064 60.0064 0 0 0-22.5792 48.64c0 19.456 7.68 35.84 23.04 49.152 15.36 13.312 35.328 19.968 59.9552 19.968 25.4464 0 45.6192-6.4512 60.5696-19.3536 14.9504-12.9536 22.4256-29.4912 22.4256-49.7664 0-20.0192-7.6288-36.2496-22.8864-48.64-15.2576-12.3904-35.328-18.5856-60.1088-18.5856z m0-375.6544c-20.5824 0-43.7248 3.072-69.4784 9.1648s-46.2848 13.312-61.5424 21.8112V420.864c41.3184-29.3376 80.7936-44.032 118.272-44.032 12.288 0 22.3744 2.9696 30.208 8.8576 7.8848 5.888 11.776 13.2096 11.776 21.8624a47.104 47.104 0 0 1-3.328 18.432c-2.2016 5.2736-5.9392 10.752-11.1104 16.4352-5.2224 5.6832-16.9984 16.1792-35.4816 31.4368-28.16 23.552-42.2912 56.1152-42.2912 97.6384v30.0544h117.3504v-11.776c0-14.848 3.4816-27.2896 10.496-37.3248 7.0144-10.0352 19.0976-21.504 36.2496-34.56 50.0224-38.4 75.0592-82.944 75.0592-133.5808 0-41.728-15.104-73.5744-45.312-95.4368C590.08 266.9568 546.4576 256 489.4208 256z" fill="#FA5555" p-id="23725"></path></svg>