<?xml version="1.0" standalone="no"?><!DOCTYPE svg PUBLIC "-//W3C//DTD SVG 1.1//EN" "http://www.w3.org/Graphics/SVG/1.1/DTD/svg11.dtd"><svg t="1764215479604" class="icon" viewBox="0 0 1024 1024" version="1.1" xmlns="http://www.w3.org/2000/svg" p-id="16437" xmlns:xlink="http://www.w3.org/1999/xlink" width="64" height="64"><path d="M572.4 256.9c11.1 21 25.3 38.3 42.6 52.1 26.1 20.8 58 32.5 97.2 35.5-8.3 36-3.7 65.8 4 87.8 13.2 37.4 40.4 69.8 81.1 96.6-27.1 23.2-52.1 54.3-63.2 94.8-10.4 37.5-7.6 76.6 8.2 117h-1.8c-59.6 0-109.4 14.5-148 43.2-11.7 8.7-21.6 18.2-30 28.1-33.4-35.3-72.5-58.4-114.1-67.2-13.1-2.8-26.6-4.2-40.1-4.2-27.9 0-56.4 5.9-85.2 17.7 5.2-52.5-0.7-99.3-17.7-140.1-19.7-47.2-51.1-78.9-82.1-100 28.7-22.2 58.9-53.1 81.3-94.8 18.1-33.8 29.3-70.7 33.5-110.4 23.7 11.7 50.9 19.6 81 19.6 1.8 0 3.5 0 5.3-0.1 52.9-1.3 102.4-26.8 148-75.6m28.4-146.5l-11.9 21C536.6 223.5 480.6 271 422.6 272.8c-1.2 0-2.3 0.1-3.4 0.1-78.8 0-135.5-85.8-136.1-86.6l-22.5-34.6 9.3 40.3c18.2 78.9 12.1 147.2-18 203.3-26.9 50.1-68.7 81-99 98.2-35.6 20.1-61.9 26.1-62.2 26.1l-54.5 11.7 55.7 2.7c0.2 0 31 1.6 63.5 15.5 31.2 13.3 73 40 94.7 92 24.6 59 18.9 137.4-17.1 233.2l-11 29.1 22.8-21.1c58.3-54.4 113.2-81.9 163.5-81.9 9.4 0 18.6 1 27.7 2.9 85.4 18 128.3 116.5 128.7 117.5l12.3 29 1.7-31.6c0-0.5 3.3-51.9 49.6-86.4 28.2-20.9 65.7-31.4 112.2-31.4 31 0 65.9 4.7 104.7 14l22.4 5.4-15.2-17.3c-53.3-60.7-73.6-115.5-60.5-163.1 21-75.8 121.1-108.8 122-109.2l23.9-7.7-24.3-6.3c-1.1-0.2-114.8-30.7-140.7-104.1-12.6-35.8-2.1-76.7 31.1-121.5l10.6-14.3-17.6 2.7c-21.5 3.3-43.1 5.9-63.7 5.9-30.6 0-58.9-5.7-80.9-23.2-29.1-23.3-45.5-65-50-127.6l-1.5-24.1z" fill="#91000A" p-id="16438"></path><path d="M418.4 77.8c-1.2 26.2-2.9 52.7-4.4 79 7.3-2.8 14.7-5.3 22-8.1-24.5-21.4-35.7-53.7-56.2-78.4-9.6-11.2-29.6-2.4-23.7 12.8 10.7 26.9 27 54.8 23.8 84.8-2 17.2 24.8 22.2 26.8 4.7 4.2-35.9-12.1-67.1-25.1-99.2-7.8 4.4-15.9 8.5-23.7 12.8 22.2 26.7 34.5 60.1 60.9 83.4 6.9 6 21.4 2.2 22-8.1 1.2-26.2 2.9-52.7 4.4-79 0.5-17.3-26-22.1-26.8-4.7zM70.5 352.9c-20.2 0.1-21.1 24-5 26.8 28.5 4.8 60.8 5.4 84.8 23.8 13.6 10.6 31.9-9.7 18-20.5-28.5-22.2-63.6-24.5-97.8-30.1-0.3 8.9-1 18-1.3 26.9M456.2 905c-5.5-19.5-28.8-13.8-27.1 2.5 3.1 28.8 11.2 60 0 88.1-6.6 16 17.9 28.1 24.6 11.8 13.7-33.5 6.4-68 2.5-102.4-8.7 2.1-17.6 3.9-26.2 6M415.5 886.7c-6.7-12.9-29.4-10.7-26.7-0.2 4.9 18.7 15 39.4 5.7 56.7-5.5 9.9 19.5 19.2 25 9.2 11.4-20.7 2-43.3-4-65.7-8.4 0.8-17.1 1.4-25.5 2.2M139.8 261.4c21.5 15 43 30.7 64.3 46 1.5-7.7 3.4-15.2 4.9-22.9-31.1 9.2-64.4 1.4-96.3 5.5-14.6 2.1-17.9 23.8-1.8 26.9 28.5 5.3 60.7 6.5 84.3 25.3 13.4 10.9 32.1-9.1 18.4-20.1-28-22.8-63.1-25.7-97.3-31.9-0.5 8.9-1.3 17.9-1.8 26.9 34.5-4.5 69.2 3.1 103.1-6.8 8.8-2.6 13.4-16.9 4.9-22.9-21.5-15-43-30.7-64.3-46-14.4-9.8-32.6 10-18.4 20zM863.1 421c-16.9 11.1-4.6 31.6 10.4 25.2 26.6-11.5 54-28.6 84.1-26.2 17.2 1.5 21.5-25.5 4-27-36-3.2-66.7 14-98.5 28 4.6 7.6 8.9 15.6 13.5 23.3M871.5 306.4c26.2 0.9 52.8 2.3 79 3.5-2.9-7.3-5.5-14.6-8.4-21.9-21.1 24.7-53.3 36.3-77.8 57.1-11.1 9.7-2 29.7 13.1 23.5 26.8-11 54.5-27.6 84.5-24.7 17.2 1.8 22-25.1 4.4-26.9-35.9-3.8-67 12.8-98.9 26.2 4.5 7.7 8.6 15.8 13.1 23.5 26.5-22.5 59.7-35.1 82.7-61.8 5.9-7 2-21.5-8.4-21.9-26.2-0.9-52.8-2.3-79-3.5-17.2-0.3-21.7 26.3-4.3 26.9zM828.6 895.7c4.5 25.8 8.5 52.1 12.7 78 6.5-4.3 13.2-8.3 19.7-12.7-28.5-15.6-46.4-44.7-71.7-64.5-11.7-8.9-29.5 4.1-20.4 17.6 16.2 24 38.1 47.7 41.4 77.7 1.7 17.2 29 16.4 27.2-1.1-3.6-35.9-26.2-62.9-45.9-91.5-6.7 5.9-13.7 11.7-20.3 17.6 27.5 21.3 46.6 51.3 77.4 68.4 8.1 4.4 21.4-2.4 19.7-12.7-4.5-25.8-8.5-52.1-12.7-78.1-3.2-16.9-30.1-15.9-27.1 1.3zM929.5 658.5c4.5 25.8 8.5 52.1 12.7 78 6.5-4.3 13.2-8.3 19.7-12.7-28.5-15.6-46.4-44.7-71.7-64.5-11.7-8.9-29.5 4.1-20.4 17.6 16.2 24 38.1 47.7 41.4 77.7 1.7 17.2 29 16.4 27.2-1.1-3.6-35.9-26.2-62.9-45.9-91.5-6.7 5.9-13.7 11.7-20.3 17.6 27.5 21.3 46.6 51.3 77.4 68.4 8.1 4.4 21.4-2.4 19.7-12.7-4.5-25.8-8.5-52.1-12.7-78.1-3.2-16.9-30.1-15.8-27.1 1.3zM83.3 709.8c23.1-12.4 46.8-24.6 70-36.8-6.2-4.8-12.1-9.9-18.3-14.7-5.8 31.9-27.7 58.2-38.4 88.5-4.7 14 13.2 26.7 23.2 13.7 17.6-23 33.1-51.3 60.6-63.9 15.8-7.1 6.3-32.7-9.7-25.5-32.9 14.8-51.4 44.8-72.3 72.5 7.7 4.4 15.4 9.3 23.2 13.7 11.5-32.8 33.9-60.4 40.3-95.1 1.6-9-9.1-19.5-18.3-14.7-23.1 12.4-46.7 24.6-70 36.8-15.2 8.5-5.7 33.7 9.7 25.5zM792.2 112.7c-25.1 26.4-51 52.6-76.4 78.7 10.2 3.7 20.2 7.7 30.4 11.5-6.1-44.6 11.5-88.6 12.6-133.2 0.2-20.4-28.8-29.4-36.4-8-13.4 37.8-21.7 81.9-52.4 110.4-17.7 16.2 5.7 45.9 23.7 29.3 37-33.8 48.4-81.3 64-126.8-12.1-2.5-24.3-5.6-36.4-8-1.1 48.2-18.7 94.3-12.2 142.8 1.8 12.6 20.4 21.8 30.4 11.4 25.1-26.4 51-52.6 76.4-78.8 16.3-17.7-7.1-46.8-23.7-29.3z" fill="#91000A" p-id="16439"></path></svg>