<?xml version="1.0" standalone="no"?><!DOCTYPE svg PUBLIC "-//W3C//DTD SVG 1.1//EN" "http://www.w3.org/Graphics/SVG/1.1/DTD/svg11.dtd"><svg t="1764215143885" class="icon" viewBox="0 0 1024 1024" version="1.1" xmlns="http://www.w3.org/2000/svg" p-id="8478" width="64" height="64" xmlns:xlink="http://www.w3.org/1999/xlink"><path d="M282.154667 665.386667l-159.445334 91.989333a81.706667 81.706667 0 0 1-111.402666-29.610667 81.706667 81.706667 0 0 1 29.653333-111.445333l159.445333-91.989333 81.749334 141.056z m457.941333 0l159.445333 91.989333c38.826667 22.485333 88.917333 9.216 111.36-29.610667A81.706667 81.706667 0 0 0 981.333333 616.32l-159.445333-91.989333-81.749333 141.056z" fill="#EDEDED" p-id="8479"></path><path d="M963.925333 732.842667l-5.12-17.365334a1139.328 1139.328 0 0 1-40.874666-304.597333c0-225.877333-181.930667-408.832-407.850667-408.832-224.853333 0-407.808 182.954667-407.808 408.832 0 103.253333-14.293333 205.44-40.874667 304.64l-2.048 6.101333c-25.557333 90.965333 6.144 190.122667 81.749334 246.314667 33.706667 25.6 51.114667 24.533333 68.48 24.533333a32.426667 32.426667 0 0 0 20.48-8.149333 39.893333 39.893333 0 0 1 49.066666 0l10.197334 8.149333c55.210667 41.898667 129.792 38.826667 186.026666-1.024a58.325333 58.325333 0 0 1 68.48 1.024 154.88 154.88 0 0 0 185.002667 0l10.24-8.149333c14.293333-10.24 33.706667-11.264 48.042667 0a40.96 40.96 0 0 0 23.466666 8.149333c15.36 1.024 24.533333 1.024 45.013334-10.24 91.989333-46.976 134.912-152.277333 108.330666-249.386666z" fill="#EDEDED" p-id="8480"></path><path d="M102.272 857.6c36.778667 28.586667 56.234667 27.562667 76.672 26.538667 8.149333 0 16.341333-4.096 22.485333-9.216a44.458667 44.458667 0 0 1 54.186667 0l11.221333 8.192c61.312 45.994667 144.128 42.922667 206.464-1.024 22.485333-16.341333 53.162667-15.36 75.648 1.024a170.197333 170.197333 0 0 0 205.44 0l11.221334-9.216c15.36-12.245333 37.845333-12.245333 53.162666 0a39.253333 39.253333 0 0 0 25.6 9.216c16.298667 1.024 26.538667 1.024 50.048-11.264a221.013333 221.013333 0 0 0 75.648-64.384c2.048-25.557333 0-51.114667-7.168-76.629334l-5.12-17.408a1139.328 1139.328 0 0 1-40.874666-304.597333C916.906667 182.954667 734.976 0 509.013333 0c-224.853333 0-407.808 182.954667-407.808 408.832 0 103.253333-14.293333 205.482667-40.874666 304.64l-2.048 6.101333a222.933333 222.933333 0 0 0-7.168 85.845334c15.36 20.48 31.701333 37.845333 51.114666 52.138666z" fill="#F4F4F4" p-id="8481"></path><path d="M620.501333 571.349333a44.714667 44.714667 0 0 1 51.072 33.749334c11.264 58.24-45.994667 129.792-160.426666 129.792-108.373333 0-172.8-71.552-159.488-129.792 5.12-22.485333 27.605333-37.802667 51.114666-33.706667 71.552 12.245333 145.152 12.245333 217.728 0zM256.597333 446.677333a76.672 76.672 0 1 0 153.344 0 76.672 76.672 0 0 0-153.344 0zM613.333333 446.677333a76.672 76.672 0 1 0 153.301334 0 76.672 76.672 0 0 0-153.301334 0z" fill="#464650" p-id="8482"></path></svg>