<?xml version="1.0" standalone="no"?><!DOCTYPE svg PUBLIC "-//W3C//DTD SVG 1.1//EN" "http://www.w3.org/Graphics/SVG/1.1/DTD/svg11.dtd"><svg t="1764224505798" class="icon" viewBox="0 0 1024 1024" version="1.1" xmlns="http://www.w3.org/2000/svg" p-id="8925" xmlns:xlink="http://www.w3.org/1999/xlink" width="64" height="64"><path d="M984.607601 875.668332c-18.413586 22.505495-52.171828 24.551449-74.677323 6.137862L523.244963 556.4995l-78.76923 93.09091-242.445555-203.572428 247.56044-291.548452L692.036172 358.041958l-74.677323 87.976024L1004.044164 771.324675c22.505495 18.413586 24.551449 52.171828 6.137862 73.654346l-25.574425 30.689311zM799.44876 329.398601c-18.413586 22.505495-52.171828 24.551449-74.677323 6.137863L482.325882 132.987013c-22.505495-18.413586-24.551449-52.171828-6.137862-73.654346l33.758242-39.896104c18.413586-22.505495 52.171828-25.574426 74.677323-6.137862L827.069139 214.825175c22.505495 18.413586 24.551449 52.171828 6.137862 73.654345l-33.758241 40.919081zM434.245962 762.117882L400.487721 802.013986c-18.413586 22.505495-52.171828 24.551449-74.677323 6.137862L83.364843 605.602398c-22.505495-18.413586-24.551449-52.171828-6.137862-73.654346l33.758242-39.896104c18.413586-22.505495 52.171828-25.574426 74.677323-6.137862l242.445554 203.572427c21.482517 17.390609 24.551449 50.125874 6.137862 72.631369z m205.618382 187.204795v20.459541c1.022977 28.643357-20.45954 52.171828-48.07992 54.217782H48.583625c-28.643357-2.045954-50.125874-25.574426-48.07992-54.217782v-20.459541c-1.022977-28.643357 20.45954-52.171828 48.07992-54.217782h543.200799c27.62038 1.022977 49.102897 25.574426 48.07992 54.217782z" p-id="8926" fill="#ff0000"></path></svg>