<?xml version="1.0" standalone="no"?><!DOCTYPE svg PUBLIC "-//W3C//DTD SVG 1.1//EN" "http://www.w3.org/Graphics/SVG/1.1/DTD/svg11.dtd"><svg t="1764215245893" class="icon" viewBox="0 0 1024 1024" version="1.1" xmlns="http://www.w3.org/2000/svg" p-id="14090" xmlns:xlink="http://www.w3.org/1999/xlink" width="64" height="64"><path d="M624.816 528.16h-64.448c-6.08 39.872 8.832 76.16 35.712 99.744 5.632 4.96 14.72-0.8 12.736-8.032-7.488-27.168-4.768-58.464 16-91.712z" fill="#57636E" p-id="14091"></path><path d="M943.92 272.16v-41.728c0-19.968-24.128-29.952-38.24-15.84l-57.568 57.568H495.92c-35.168 0-67.52 19.744-85.408 50.016-21.504 36.416-51.296 62.848-74.592 83.808-7.648 6.88-18.816 15.84-31.84 26.24 101.28 0.064 159.84 63.776 159.84 127.744v16a144 144 0 0 0 288 0V400.16h224v-128h-32z m-240 303.808c0 52.928-43.072 96-96 96-48.672 0-88.544-36.512-94.752-83.52-0.256-14.752 6.208-28.48 30.752-28.48h160v16zM377.52 313.888A95.024 95.024 0 0 0 335.84 304h-63.616a32.128 32.128 0 1 0 0 64.256h31.552c7.136 0 13.408 2.784 18.72 6.752 18.304-16.608 38.784-36.576 55.04-61.12z" fill="#B6C1CC" p-id="14092"></path><path d="M543.92 304.16h176v192h-176a96 96 0 0 1 0-192z" fill="#CED8E0" p-id="14093"></path><path d="M527.92 335.968h160v48h-160zM527.92 415.968h160v48h-160z" fill="#57636E" p-id="14094"></path><path d="M304.08 432.224c-11.648 9.312-25.12 20.096-39.36 31.968C184.976 530.56 77.12 634.944 80.016 756.8c1.184 51.104 44.8 91.168 95.904 91.168h160c35.36 0 64-28.64 64-64v-160c0-23.616 12.96-44.032 32-55.136a63.264 63.264 0 0 1 32-8.864c0-63.968-58.56-127.68-159.84-127.744z" fill="#643A20" p-id="14095"></path><path d="M304.08 432.224c-11.648 9.312-25.12 20.096-39.36 31.968l39.36 0.032c83.008 0.064 127.84 49.376 127.84 95.744v8.864a63.264 63.264 0 0 1 32-8.864c0-63.968-58.56-127.68-159.84-127.744z" fill="#482C1B" p-id="14096"></path><path d="M335.76 400.224c0 1.76 0.736 3.296 1.024 4.992 20.896-18.784 46.464-42.336 66.944-73.056a96.176 96.176 0 0 0-26.208-18.272c-16.224 24.544-36.736 44.512-55.04 61.088 7.84 5.792 13.28 14.688 13.28 25.248z" fill="#8292A3" p-id="14097"></path></svg>